<?xml version="1.0" standalone="no"?>
<!DOCTYPE svg PUBLIC "-//W3C//DTD SVG 20010904//EN"
 "http://www.w3.org/TR/2001/REC-SVG-20010904/DTD/svg10.dtd">
<svg version="1.0" xmlns="http://www.w3.org/2000/svg"
 width="1280.000000pt" height="826.000000pt" viewBox="0 0 1280.000000 826.000000"
 preserveAspectRatio="xMidYMid meet">
<metadata>
Created by potrace 1.15, written by Peter Selinger 2001-2017
</metadata>
<g transform="translate(0.000000,826.000000) scale(0.100000,-0.100000)"
fill="#000000" stroke="none">
<path d="M8690 7992 c-8 -5 -37 -13 -63 -16 -96 -14 -105 -55 -41 -174 44 -81
117 -298 145 -432 30 -140 33 -392 6 -525 -43 -216 -60 -284 -70 -278 -6 3 -7
1 -3 -6 10 -16 -3 -53 -16 -45 -7 5 -9 0 -6 -14 4 -14 2 -20 -4 -16 -6 4 -8
-2 -3 -16 4 -14 3 -20 -3 -16 -12 7 -56 -99 -47 -114 3 -6 1 -9 -7 -8 -8 2
-13 -6 -12 -19 0 -12 -2 -20 -6 -18 -10 6 -71 -125 -64 -137 5 -7 2 -8 -6 -3
-10 6 -12 4 -7 -9 4 -9 3 -15 -2 -12 -5 3 -30 -31 -55 -77 -192 -339 -687
-865 -1024 -1085 -90 -59 -248 -133 -377 -177 -97 -33 -215 -43 -282 -24 -54
15 -128 81 -139 124 -5 20 -9 23 -15 13 -6 -9 -9 -7 -9 9 0 12 -4 32 -9 45 -5
13 -28 75 -52 138 -49 135 -108 257 -138 284 -45 41 -61 6 -85 -193 -9 -68
-18 -126 -21 -129 -3 -3 -5 1 -5 8 0 7 -14 -15 -31 -48 -51 -102 -153 -169
-297 -194 -122 -21 -231 8 -337 89 -25 19 -49 32 -52 29 -3 -3 -28 15 -56 39
-63 57 -94 66 -119 35 -40 -49 -13 -257 63 -481 39 -116 49 -160 29 -129 -8
12 -10 10 -10 -9 0 -42 -38 -89 -95 -116 -50 -25 -62 -27 -152 -22 -336 15
-924 120 -1223 219 -488 161 -877 390 -1208 712 -233 226 -431 494 -481 649
-8 22 -17 34 -23 31 -7 -5 -9 0 -6 14 4 12 3 22 -1 22 -10 0 -23 61 -57 255
-30 171 -29 191 16 411 32 159 37 223 19 241 -15 15 -31 8 -103 -40 -32 -22
-55 -34 -51 -27 4 7 -12 2 -36 -11 -64 -35 -408 -382 -532 -537 -118 -149
-381 -538 -381 -564 0 -9 -4 -14 -8 -12 -4 3 -12 -6 -19 -18 -11 -21 -11 -22
4 -10 9 8 3 -11 -15 -45 -33 -62 -45 -79 -35 -50 19 51 -13 -8 -129 -240 -70
-142 -130 -262 -132 -267 -3 -5 0 -6 7 -2 8 6 8 1 0 -18 -7 -14 -16 -23 -20
-20 -5 3 -6 -3 -2 -12 4 -12 3 -15 -5 -10 -8 5 -10 1 -5 -10 4 -11 2 -15 -4
-11 -6 4 -11 1 -10 -6 1 -32 -4 -48 -13 -42 -6 4 -7 -1 -3 -11 4 -11 3 -15 -4
-11 -7 5 -9 -1 -5 -15 3 -13 1 -19 -5 -15 -6 4 -11 1 -10 -6 1 -32 -4 -48 -13
-42 -6 4 -7 -1 -3 -11 5 -13 3 -15 -7 -9 -9 5 -11 4 -6 -4 10 -16 -3 -53 -16
-45 -7 5 -9 1 -5 -9 8 -22 -12 -79 -26 -70 -6 3 -7 1 -3 -6 10 -16 -3 -53 -16
-45 -7 5 -8 2 -4 -5 10 -16 -13 -73 -27 -64 -6 4 -8 0 -4 -11 4 -10 -2 -34
-13 -56 -11 -22 -34 -90 -50 -152 -16 -62 -55 -194 -85 -293 -30 -99 -67 -234
-81 -300 -14 -66 -40 -183 -59 -260 -42 -175 -52 -222 -65 -312 -12 -86 -13
-263 -2 -263 9 0 244 147 512 320 225 145 291 172 595 240 355 80 664 80 840
0 262 -119 345 -173 385 -255 8 -16 24 -43 36 -60 42 -60 49 -94 48 -225 -1
-69 -9 -178 -18 -243 -18 -135 -21 -240 -6 -268 18 -33 50 -21 144 53 315 250
487 350 756 441 203 68 272 81 420 82 213 0 334 -36 521 -157 115 -75 184
-141 196 -186 3 -13 21 -49 40 -81 75 -124 92 -231 93 -569 l0 -243 99 91
c243 226 404 310 596 310 67 0 94 -5 165 -33 249 -98 489 -249 668 -421 102
-98 289 -312 366 -420 133 -185 292 -475 447 -814 54 -118 99 -205 101 -195 2
10 -9 90 -24 178 -106 627 -128 1041 -72 1395 56 359 175 716 302 908 38 59
206 241 277 300 181 154 470 173 738 49 113 -52 161 -88 283 -213 113 -116
146 -135 159 -94 9 27 0 77 -41 241 -62 248 -38 436 92 717 86 185 274 337
495 398 99 28 392 26 514 -4 108 -26 186 -50 280 -87 39 -15 93 -33 120 -40
28 -7 120 -48 205 -89 140 -69 213 -96 226 -84 2 3 -30 78 -71 167 -41 89 -74
165 -72 169 4 13 -25 72 -33 67 -5 -3 -12 0 -16 6 -4 8 -3 9 4 5 7 -4 12 -5
12 -2 0 15 -65 134 -71 130 -4 -2 -5 6 -1 18 3 12 1 19 -4 15 -12 -7 -98 249
-90 269 3 8 2 13 -3 10 -18 -11 -61 209 -61 311 0 102 51 327 94 417 66 135
188 255 321 316 265 122 327 142 480 160 114 13 243 13 420 0 187 -14 219 -21
441 -100 216 -77 313 -103 365 -98 l36 3 -110 135 c-61 74 -100 126 -87 115
52 -44 -51 93 -161 215 -142 156 -193 207 -357 351 -259 228 -325 282 -537
442 -554 416 -1019 664 -1675 895 -162 57 -334 97 -669 157 -175 31 -251 39
-271 27z m-69 -1579 c-12 -20 -14 -14 -5 12 4 9 9 14 11 11 3 -2 0 -13 -6 -23z
m-7558 -948 c-3 -9 -8 -14 -10 -11 -3 3 -2 9 2 15 9 16 15 13 8 -4z m-20 -40
c-3 -9 -8 -14 -10 -11 -3 3 -2 9 2 15 9 16 15 13 8 -4z m-20 -40 c-3 -9 -8
-14 -10 -11 -3 3 -2 9 2 15 9 16 15 13 8 -4z m-20 -40 c-3 -9 -8 -14 -10 -11
-3 3 -2 9 2 15 9 16 15 13 8 -4z m-20 -40 c-3 -9 -8 -14 -10 -11 -3 3 -2 9 2
15 9 16 15 13 8 -4z m-20 -40 c-3 -9 -8 -14 -10 -11 -3 3 -2 9 2 15 9 16 15
13 8 -4z m-20 -40 c-3 -9 -8 -14 -10 -11 -3 3 -2 9 2 15 9 16 15 13 8 -4z
m-20 -40 c-3 -9 -8 -14 -10 -11 -3 3 -2 9 2 15 9 16 15 13 8 -4z m-20 -40 c-3
-9 -8 -14 -10 -11 -3 3 -2 9 2 15 9 16 15 13 8 -4z m-20 -40 c-3 -9 -8 -14
-10 -11 -3 3 -2 9 2 15 9 16 15 13 8 -4z m-20 -40 c-3 -9 -8 -14 -10 -11 -3 3
-2 9 2 15 9 16 15 13 8 -4z m-20 -40 c-3 -9 -8 -14 -10 -11 -3 3 -2 9 2 15 9
16 15 13 8 -4z"/>
<path d="M1085 5549 c-4 -6 -5 -12 -2 -15 2 -3 7 2 10 11 7 17 1 20 -8 4z"/>
</g>
</svg>
